# File created by Blade
# Date/Time:  Fri Jan 16 15:45:56 2015
#---------------------------------------------------------
:version 1.10
:name HOM
:units
  mass 1.0
  length 1.000000
  angle deg
:documentation
     Acclaim Skeleton File
:root
   axis xyz
   order TX TY TZ RX RY RZ
   position 0.000000 0.000000 0.000000
   orientation 0 0 0
:bonedata
   begin
      id 1
      name Spine_dum
      direction 0.000000 1.000000 0.000000
      length 7.170412
      axis 0.0 0.0 0.0 xyz
   end
   begin
      id 2
      name LeftUpLeg_dum
      direction 1.000000 0.000000 0.000000
      length 4.318350
      axis 0.0 0.0 0.0 xyz
   end
   begin
      id 3
      name RightUpLeg_dum
      direction -1.000000 0.000000 0.000000
      length 4.318350
      axis 0.0 0.0 0.0 xyz
   end
   begin
      id 4
      name Spine
      direction 0.000000 1.000000 0.000000
      length 0.000000
      axis 0.0 0.0 0.0 xyz
      dof rx ry rz
   end
   begin
      id 5
      name Spine_dum1
      direction 0.000000 1.000000 0.000000
      length 14.276153
      axis 0.0 0.0 0.0 xyz
   end
   begin
      id 6
      name Spine_dum2
      direction 0.000000 1.000000 0.000000
      length 10.718243
      axis 0.0 0.0 0.0 xyz
   end
   begin
      id 7
      name Spine_dum3
      direction 0.000000 1.000000 0.000000
      length 10.718243
      axis 0.0 0.0 0.0 xyz
   end
   begin
      id 8
      name Head
      direction 0.000000 1.000000 0.000000
      length 4.527550
      axis 0.0 0.0 0.0 xyz
      dof rx ry rz
   end
   begin
      id 9
      name LeftShoulder
      direction 1.000000 0.000000 0.000000
      length 7.058872
      axis 0.0 0.0 -90.0 xyz
      dof rx ry rz
   end
   begin
      id 10
      name LeftArm
      direction 1.000000 0.000000 0.000000
      length 10.955525
      axis 0.0 0.0 -90.0 xyz
      dof rx ry rz
   end
   begin
      id 11
      name LeftForeArm
      direction 1.000000 0.000000 0.000000
      length 8.193716
      axis 0.0 0.0 -90.0 xyz
      dof ry rz rx
   end
   begin
      id 12
      name LeftHand
      direction 0.000000 0.000000 0.000000
      length 0.000000
      axis 0.0 0.0 -90.0 xyz
      dof rx ry rz
   end
   begin
      id 13
      name LeftHand_dum1
      direction 0.000000 0.000000 0.000000
      length 0.000000
      axis 0.0 0.0 -90.0 xyz
   end
   begin
      id 14
      name LeftHand_dum2
      direction 1.000000 0.000000 0.000000
      length 3.937000
      axis 0.0 0.0 -90.0 xyz
   end
   begin
      id 15
      name LeftHandThumb1
      direction 0.000000 0.000000 1.000000
      length 3.937000
      axis 0.0 0.0 -90.0 xyz
      dof rx rz ry
   end
   begin
      id 16
      name RightShoulder
      direction -1.000000 0.000000 0.000000
      length 7.058872
      axis 0.0 0.0 90.0 xyz
      dof rx ry rz
   end
   begin
      id 17
      name RightArm
      direction -1.000000 0.000000 0.000000
      length 10.955525
      axis 0.0 0.0 90.0 xyz
      dof rx ry rz
   end
   begin
      id 18
      name RightForeArm
      direction -1.000000 0.000000 0.000000
      length 8.193716
      axis 0.0 0.0 90.0 xyz
      dof ry rz rx
   end
   begin
      id 19
      name RightHand
      direction 0.000000 0.000000 0.000000
      length 0.000000
      axis 0.0 0.0 90.0 xyz
      dof rx ry rz
   end
   begin
      id 20
      name RightHand_dum1
      direction 0.000000 0.000000 0.000000
      length 0.000000
      axis 0.0 0.0 90.0 xyz
   end
   begin
      id 21
      name RightHand_dum2
      direction -1.000000 0.000000 0.000000
      length 3.937000
      axis 0.0 0.0 90.0 xyz
   end
   begin
      id 22
      name RightHandThumb1
      direction 0.000000 0.000000 1.000000
      length 3.937000
      axis 0.0 0.0 90.0 xyz
      dof rx rz ry
   end
   begin
      id 23
      name LeftUpLeg
      direction 0.000000 -1.000000 0.000000
      length 17.323638
      axis 0.0 0.0 0.0 xyz
      dof rx ry rz
   end
   begin
      id 24
      name LeftLeg
      direction 0.000000 -1.000000 0.000000
      length 16.270368
      axis 0.0 0.0 0.0 xyz
      dof rx ry rz
   end
   begin
      id 25
      name LeftFoot
      direction 0.000000 -0.258819 0.965926
      length 4.922846
      axis 15.0 0.0 0.0 xyz
      dof rx ry rz
   end
   begin
      id 26
      name LeftToeBase
      direction 0.000000 0.000000 1.000000
      length 2.952750
      axis 0.0 0.0 0.0 xyz
      dof rx ry rz
   end
   begin
      id 27
      name RightUpLeg
      direction 0.000000 -1.000000 0.000000
      length 17.323638
      axis 0.0 0.0 0.0 xyz
      dof rx ry rz
   end
   begin
      id 28
      name RightLeg
      direction 0.000000 -1.000000 0.000000
      length 16.270368
      axis 0.0 0.0 0.0 xyz
      dof rx ry rz
   end
   begin
      id 29
      name RightFoot
      direction 0.000000 -0.258819 0.965926
      length 4.922846
      axis 15.0 0.0 0.0 xyz
      dof rx ry rz
   end
   begin
      id 30
      name RightToeBase
      direction 0.000000 0.000000 1.000000
      length 2.952750
      axis 0.0 0.0 0.0 xyz
      dof rx ry rz
   end
:hierarchy
   begin
      root Spine_dum LeftUpLeg_dum RightUpLeg_dum
      Spine_dum Spine
      LeftUpLeg_dum LeftUpLeg
      RightUpLeg_dum RightUpLeg
      Spine Spine_dum1 Spine_dum2 Spine_dum3
      Spine_dum1 Head
      Spine_dum2 LeftShoulder
      Spine_dum3 RightShoulder
      LeftShoulder LeftArm
      LeftArm LeftForeArm
      LeftForeArm LeftHand
      LeftHand LeftHand_dum1 LeftHand_dum2
      LeftHand_dum1 LeftHandThumb1
      RightShoulder RightArm
      RightArm RightForeArm
      RightForeArm RightHand
      RightHand RightHand_dum1 RightHand_dum2
      RightHand_dum1 RightHandThumb1
      LeftUpLeg LeftLeg
      LeftLeg LeftFoot
      LeftFoot LeftToeBase
      RightUpLeg RightLeg
      RightLeg RightFoot
      RightFoot RightToeBase
   end

# File created by Blade
# Date/Time:  Fri Jan 16 15:45:48 2015
# Frame Rate: 120.000 fps
#------------------------------------------------------
:FULLY-SPECIFIED
:DEGREES
276
root -5.605853 35.251996 -9.874630 4.610202 -1.206006 -5.005422
Spine -11.142028 1.213729 2.299234
Head 10.818252 4.771258 4.074812
LeftShoulder -19.603970 9.439017 -11.614423
LeftArm 17.162496 14.561121 -72.902409
LeftForeArm 18.234914 -0.000000 11.492414
LeftHand 1.263609 -0.000000 -7.967009
LeftHandThumb1 -26.253704 0.000000 33.147579
RightShoulder -28.998935 36.367673 -52.305684
RightArm 105.115275 63.517897 73.347194
RightForeArm -0.407675 -0.000000 145.872100
RightHand 4.769068 -0.000000 -25.294508
RightHandThumb1 -24.326973 -0.000000 -32.862282
LeftUpLeg 5.177337 11.446062 5.470902
LeftLeg -10.513114 -0.000000 0.000000
LeftFoot -13.721054 25.986502 -10.044399
LeftToeBase 21.719632 -0.000000 -0.000000
RightUpLeg 3.125947 -7.535608 2.348275
RightLeg -5.083294 -0.000000 0.000000
RightFoot -5.455137 -26.040208 7.364205
RightToeBase 11.980066 -0.000000 -0.000000
277
root -5.604649 35.251106 -9.866911 4.605265 -1.226244 -5.003292
Spine -11.218264 1.217567 2.297105
Head 10.995615 4.760820 4.028192
LeftShoulder -19.557943 9.455999 -11.572040
LeftArm 17.149631 14.908607 -72.804521
LeftForeArm 18.070223 0.000000 11.567589
LeftHand 1.139742 -0.000000 -7.976336
LeftHandThumb1 -26.253704 0.000000 33.147579
RightShoulder -29.045394 36.141341 -52.244156
RightArm 104.561343 63.554142 72.653140
RightForeArm -1.123349 -0.000000 147.158504
RightHand 4.492194 -0.000000 -25.176218
RightHandThumb1 -24.326973 -0.000000 -32.862282
LeftUpLeg 5.187101 11.513009 5.469840
LeftLeg -10.488070 -0.000000 0.000000
LeftFoot -13.735687 25.936571 -10.024154
LeftToeBase 21.704051 -0.000000 -0.000000
RightUpLeg 3.129139 -7.491173 2.339854
RightLeg -5.054611 -0.000000 0.000000
RightFoot -5.488452 -26.061949 7.357703
RightToeBase 11.992540 -0.000000 -0.000000
278
root -5.604839 35.249346 -9.855877 4.577003 -1.244119 -5.005850
Spine -11.263310 1.302879 2.328724
Head 11.156222 4.739290 3.888756
LeftShoulder -19.439371 9.487540 -11.556000
LeftArm 17.151062 15.378871 -72.623797
LeftForeArm 17.894274 0.000000 11.696465
LeftHand 0.988362 -0.000000 -8.107852
LeftHandThumb1 -26.253704 0.000000 33.147579
RightShoulder -29.169328 35.876272 -52.261310
RightArm 103.667673 63.592132 71.445861
RightForeArm -3.038222 -0.000000 148.301444
RightHand 4.050849 -0.000000 -25.072309
RightHandThumb1 -24.326973 -0.000000 -32.862282
LeftUpLeg 5.227183 11.534844 5.481240
LeftLeg -10.464666 -0.000000 0.000000
LeftFoot -13.768743 25.929512 -10.001873
LeftToeBase 21.750636 -0.000000 -0.000000
RightUpLeg 3.164625 -7.459932 2.336283
RightLeg -5.035455 -0.000000 0.000000
RightFoot -5.511998 -26.082250 7.356567
RightToeBase 11.990022 -0.000000 -0.000000
279
root -5.606395 35.250432 -9.845509 4.526866 -1.249917 -4.986698
Spine -11.294013 1.066105 2.298062
Head 11.377093 4.974950 3.999959
LeftShoulder -19.625274 9.468824 -11.536508
LeftArm 17.189319 15.575677 -72.544878
LeftForeArm 17.794785 -0.000000 11.746162
LeftHand 1.063739 -0.000000 -7.911077
LeftHandThumb1 -26.253704 0.000000 33.147579
RightShoulder -28.986199 35.948991 -51.987450
RightArm 102.631973 63.661815 70.073396
RightForeArm -4.829675 -0.000000 149.427269
RightHand 3.599550 -0.000000 -25.343828
RightHandThumb1 -24.326973 -0.000000 -32.862282
LeftUpLeg 5.280612 11.526317 5.476262
LeftLeg -10.431850 -0.000000 0.000000
LeftFoot -13.797363 25.928893 -10.066320
LeftToeBase 21.715789 -0.000000 -0.000000
RightUpLeg 3.222746 -7.448733 2.312697
RightLeg -5.018900 -0.000000 0.000000
RightFoot -5.540136 -26.093564 7.380609
RightToeBase 11.974823 -0.000000 -0.000000
